<svg width="1440" height="1413" viewBox="0 0 1440 1413" fill="none" xmlns="http://www.w3.org/2000/svg">
<g clip-path="url(#clip0_181_173)">
<path d="M-265.259 500.732C-347.18 524.285 -266.526 1669.01 -266.526 1669.01C-266.526 1669.01 174.515 1733.76 461.825 1722.15C829.352 1707.3 1298.47 1704.44 1398.91 1593.97C1499.36 1483.5 1922.18 25.0219 1653.63 0.738014C1563.69 -7.39488 1504.03 53.1193 1394.51 111.804C1298.23 163.391 1306.7 104.823 1218.33 148.487C1034.17 239.487 985.46 218.661 904.598 189.12C833.17 163.026 789.388 155.625 711.291 149.589C547.32 136.916 412.22 70.0213 306.757 82.6559C143.815 102.176 -147.978 467.014 -265.259 500.732Z" fill="#DE9E43" fill-opacity="0.1"/>
</g>
<defs>
<clipPath id="clip0_181_173">
<rect width="1440" height="1413" fill="white"/>
</clipPath>
</defs>
</svg>
