<svg width="150" height="22" viewBox="0 0 150 22" fill="none" xmlns="http://www.w3.org/2000/svg">
<rect x="38.4553" width="51.6401" height="21.9745" rx="4" fill="white"/>
<path d="M1.49427 18V2.61783H7.66911C9.26592 2.61783 10.4818 2.9914 11.3169 3.73853C12.1666 4.47102 12.5914 5.41592 12.5914 6.57325C12.5914 7.54013 12.3277 8.31656 11.8003 8.90255C11.2876 9.47388 10.6576 9.8621 9.91051 10.0672C10.7895 10.243 11.5147 10.6825 12.086 11.3857C12.6573 12.0742 12.943 12.8799 12.943 13.8029C12.943 15.0188 12.5035 16.0223 11.6245 16.8134C10.7455 17.6045 9.50032 18 7.88885 18H1.49427ZM4.30701 9.07834H7.25159C8.04268 9.07834 8.65064 8.89522 9.07548 8.52898C9.50032 8.16274 9.71274 7.64267 9.71274 6.96879C9.71274 6.3242 9.50032 5.81879 9.07548 5.45255C8.66529 5.07165 8.04268 4.88121 7.20764 4.88121H4.30701V9.07834ZM4.30701 15.7146H7.44936C8.2844 15.7146 8.92898 15.5242 9.38312 15.1433C9.85191 14.7478 10.0863 14.1984 10.0863 13.4952C10.0863 12.7774 9.84459 12.2134 9.36115 11.8032C8.87771 11.393 8.2258 11.1879 7.40541 11.1879H4.30701V15.7146ZM17.6425 18V15.8465L24.7182 4.96911H17.7084V2.61783H27.9705V4.77134L20.8507 15.6487H28.0144V18H17.6425ZM92.9761 18V2.61783H98.228C100.03 2.61783 101.51 2.94013 102.667 3.58471C103.839 4.21465 104.703 5.10828 105.26 6.2656C105.831 7.40828 106.117 8.75605 106.117 10.3089C106.117 11.8618 105.831 13.2169 105.26 14.3742C104.703 15.5169 103.839 16.4105 102.667 17.0551C101.51 17.685 100.03 18 98.228 18H92.9761ZM95.7888 15.5828H98.0962C99.3853 15.5828 100.403 15.3777 101.151 14.9675C101.898 14.5427 102.432 13.942 102.755 13.1656C103.077 12.3745 103.238 11.4223 103.238 10.3089C103.238 9.21019 103.077 8.26529 102.755 7.4742C102.432 6.68312 101.898 6.07516 101.151 5.65032C100.403 5.22548 99.3853 5.01306 98.0962 5.01306H95.7888V15.5828ZM115.037 18.2637C114.1 18.2637 113.33 18.1172 112.73 17.8242C112.129 17.5166 111.682 17.1137 111.389 16.6156C111.096 16.1175 110.95 15.5682 110.95 14.9675C110.95 13.9567 111.345 13.1363 112.137 12.5064C112.928 11.8764 114.114 11.5615 115.696 11.5615H118.465V11.2978C118.465 10.5506 118.253 10.0013 117.828 9.64968C117.403 9.29809 116.876 9.12229 116.246 9.12229C115.674 9.12229 115.176 9.26146 114.751 9.53981C114.327 9.8035 114.063 10.199 113.96 10.7264H111.214C111.287 9.93535 111.551 9.24681 112.005 8.66083C112.473 8.07484 113.074 7.62802 113.807 7.32038C114.539 6.99809 115.359 6.83694 116.268 6.83694C117.821 6.83694 119.044 7.22516 119.937 8.00159C120.831 8.77802 121.278 9.87675 121.278 11.2978V18H118.883L118.619 16.242C118.297 16.828 117.843 17.3115 117.257 17.6924C116.685 18.0732 115.945 18.2637 115.037 18.2637ZM115.674 16.0662C116.48 16.0662 117.103 15.8025 117.542 15.2752C117.996 14.7478 118.282 14.0959 118.399 13.3194H116.004C115.257 13.3194 114.722 13.4586 114.4 13.7369C114.078 14.0006 113.916 14.3303 113.916 14.7258C113.916 15.1506 114.078 15.4803 114.4 15.7146C114.722 15.949 115.147 16.0662 115.674 16.0662ZM131.415 18C130.272 18 129.357 17.7217 128.668 17.165C127.98 16.6083 127.635 15.6194 127.635 14.1984V9.45191H125.768V7.10064H127.635L127.965 4.17802H130.448V7.10064H133.393V9.45191H130.448V14.2204C130.448 14.7478 130.558 15.114 130.778 15.3191C131.012 15.5096 131.408 15.6048 131.964 15.6048H133.327V18H131.415ZM142.312 18.2637C141.375 18.2637 140.605 18.1172 140.005 17.8242C139.404 17.5166 138.957 17.1137 138.664 16.6156C138.371 16.1175 138.225 15.5682 138.225 14.9675C138.225 13.9567 138.62 13.1363 139.412 12.5064C140.203 11.8764 141.389 11.5615 142.971 11.5615H145.74V11.2978C145.74 10.5506 145.528 10.0013 145.103 9.64968C144.678 9.29809 144.151 9.12229 143.521 9.12229C142.949 9.12229 142.451 9.26146 142.026 9.53981C141.602 9.8035 141.338 10.199 141.235 10.7264H138.489C138.562 9.93535 138.826 9.24681 139.28 8.66083C139.748 8.07484 140.349 7.62802 141.082 7.32038C141.814 6.99809 142.634 6.83694 143.543 6.83694C145.096 6.83694 146.319 7.22516 147.212 8.00159C148.106 8.77802 148.553 9.87675 148.553 11.2978V18H146.158L145.894 16.242C145.572 16.828 145.118 17.3115 144.532 17.6924C143.96 18.0732 143.22 18.2637 142.312 18.2637ZM142.949 16.0662C143.755 16.0662 144.378 15.8025 144.817 15.2752C145.271 14.7478 145.557 14.0959 145.674 13.3194H143.279C142.532 13.3194 141.997 13.4586 141.675 13.7369C141.353 14.0006 141.191 14.3303 141.191 14.7258C141.191 15.1506 141.353 15.4803 141.675 15.7146C141.997 15.949 142.422 16.0662 142.949 16.0662Z" fill="white"/>
<path d="M48.0044 18.2637C46.5541 18.2637 45.2869 17.9341 44.2028 17.2748C43.1187 16.6156 42.2764 15.7 41.6757 14.528C41.0751 13.3414 40.7748 11.9643 40.7748 10.3968C40.7748 8.81465 41.0824 7.42293 41.6977 6.22166C42.3276 5.00573 43.2139 4.06083 44.3566 3.38694C45.5139 2.69841 46.8837 2.35414 48.4658 2.35414C50.2678 2.35414 51.762 2.7863 52.9486 3.65063C54.1353 4.51497 54.9044 5.70892 55.256 7.23248H52.1136C51.8792 6.51465 51.4544 5.95796 50.8391 5.56242C50.2238 5.15223 49.4327 4.94713 48.4658 4.94713C46.9276 4.94713 45.741 5.4379 44.906 6.41943C44.0709 7.3863 43.6534 8.71943 43.6534 10.4188C43.6534 12.1182 44.0636 13.4366 44.884 14.3742C45.719 15.2971 46.8471 15.7586 48.2681 15.7586C49.6598 15.7586 50.7072 15.385 51.4104 14.6379C52.1283 13.8761 52.5604 12.8799 52.7069 11.6494H48.8174V9.53981H55.5416V18H52.9486L52.7289 15.9783C52.2308 16.7108 51.6082 17.2748 50.8611 17.6704C50.1139 18.0659 49.1617 18.2637 48.0044 18.2637ZM66.2528 18.2637C65.1541 18.2637 64.1799 18.0293 63.3302 17.5605C62.4806 17.0917 61.814 16.4325 61.3306 15.5828C60.8471 14.7331 60.6054 13.7516 60.6054 12.6382C60.6054 11.5102 60.8398 10.5067 61.3086 9.62771C61.792 8.74873 62.4513 8.06751 63.2863 7.58408C64.136 7.08599 65.1321 6.83694 66.2748 6.83694C67.3442 6.83694 68.2892 7.07134 69.1095 7.54013C69.9299 8.00892 70.5672 8.6535 71.0213 9.47388C71.4901 10.2796 71.7245 11.1806 71.7245 12.1768C71.7245 12.3379 71.7172 12.5064 71.7025 12.6822C71.7025 12.858 71.6952 13.0411 71.6806 13.2315H63.3962C63.4548 14.0812 63.7477 14.7478 64.2751 15.2312C64.8172 15.7146 65.4691 15.9564 66.2309 15.9564C66.8022 15.9564 67.2783 15.8318 67.6592 15.5828C68.0548 15.3191 68.3477 14.9822 68.5382 14.572H71.3949C71.1898 15.2605 70.8455 15.8904 70.3621 16.4618C69.8933 17.0185 69.3073 17.458 68.6041 17.7803C67.9156 18.1025 67.1318 18.2637 66.2528 18.2637ZM66.2748 9.12229C65.5863 9.12229 64.9783 9.32006 64.4509 9.7156C63.9235 10.0965 63.5866 10.6825 63.4401 11.4736H68.8678C68.8239 10.7557 68.5602 10.1844 68.0767 9.75955C67.5933 9.33471 66.9927 9.12229 66.2748 9.12229ZM82.0669 18.2637C81.0122 18.2637 80.0599 18.022 79.2103 17.5385C78.3752 17.0551 77.7087 16.3885 77.2106 15.5389C76.7271 14.6745 76.4854 13.6783 76.4854 12.5503C76.4854 11.4223 76.7345 10.4334 77.2326 9.58376C77.7306 8.71943 78.3972 8.04554 79.2322 7.5621C80.0819 7.07866 81.0341 6.83694 82.0889 6.83694C83.1291 6.83694 84.0666 7.07866 84.9017 7.5621C85.7513 8.04554 86.4179 8.71943 86.9013 9.58376C87.3994 10.4334 87.6485 11.4223 87.6485 12.5503C87.6485 13.6783 87.3994 14.6745 86.9013 15.5389C86.4179 16.3885 85.7513 17.0551 84.9017 17.5385C84.052 18.022 83.1071 18.2637 82.0669 18.2637ZM82.0669 15.8245C82.7994 15.8245 83.4367 15.5535 83.9787 15.0115C84.5208 14.4548 84.7918 13.6344 84.7918 12.5503C84.7918 11.4662 84.5208 10.6532 83.9787 10.1111C83.4367 9.55446 82.8068 9.27611 82.0889 9.27611C81.3418 9.27611 80.6972 9.55446 80.1552 10.1111C79.6278 10.6532 79.3641 11.4662 79.3641 12.5503C79.3641 13.6344 79.6278 14.4548 80.1552 15.0115C80.6972 15.5535 81.3345 15.8245 82.0669 15.8245Z" fill="#213C4D"/>
</svg>
