<svg width="1440" height="479" viewBox="0 0 1440 479" fill="none" xmlns="http://www.w3.org/2000/svg">
<g clip-path="url(#clip0_181_176)">
<path d="M-925.918 64.6717C-1010.66 82.7291 -1038.58 104.225 -1118.61 154.772C-1247.74 236.339 -1118.61 481 -1118.61 481H2398.97C2398.97 481 2876.4 313.077 2415.03 -55.9864C2389.67 -76.27 2337.55 11.2703 2272.75 44.3647C2176.27 93.6402 2132.6 -19.6402 2062.85 41.1618C1916.47 168.767 1819.23 -41.153 1608.04 31.6507C1493.74 71.0535 1500.61 69.9244 1427.33 90.8877C1295.68 128.552 1265.5 73 1140.35 35.8747C983.229 -10.7367 884.541 9.32553 730.332 48.5847C541.496 96.6594 479.824 113.617 283.507 139.238C43.511 170.559 -207.654 76.4264 -368.353 95.7409C-423.585 102.379 -452.749 126.654 -508.138 132.49C-655.557 148.025 -789.442 35.5897 -925.918 64.6717Z" fill="#213C4D"/>
</g>
<defs>
<clipPath id="clip0_181_176">
<rect width="1440" height="479" fill="white"/>
</clipPath>
</defs>
</svg>
