<svg width="1200" height="729" viewBox="0 0 1200 729" fill="none" xmlns="http://www.w3.org/2000/svg">
<g clip-path="url(#clip0_181_2)">
<rect width="1200" height="729" fill="white"/>
<path d="M281.196 238.205C222.243 279.787 235.835 344.038 188.793 389.45C145.45 431.291 127.763 497.596 71.9263 509.086C43.0621 515.025 24.9128 509.086 -2.7142 499.607C-50.7509 483.125 -103.441 478.101 -153.139 485.82C-178.707 489.79 -201.361 506.782 -204.364 511.299C-228.859 548.141 -193.462 729 -193.462 729H1233L1174.95 464.85C1174.95 464.85 1125.37 228.86 1022.9 153.621C964.043 110.406 919.12 114.664 851.611 93.7013C832.214 87.6783 821.161 73.8415 801.062 74.1107C773.037 74.486 769.512 107.215 741.484 107.164C707.524 107.103 644.906 70.1482 597.241 74.3299C554.762 78.0566 502.269 87.5053 462.421 114.253C422.573 141.001 340.148 196.624 281.196 238.205Z" fill="#DE9E43"/>
<path d="M23.1755 239.511C-6.90148 247.968 -16.8118 258.036 -45.2165 281.71C-91.0521 319.913 -45.2165 738.501 -45.2165 738.501H1203.3C1203.3 738.501 1451.26 -39.6467 1287.5 -212.5C1278.5 -222 1266 -228 1243 -212.5C1208.75 -189.421 1253 -206.5 1209 -182.5C1138.5 -134.5 1018.47 -102.384 918.5 -19.0002C894.117 1.33679 884.44 -6.02901 858.431 3.78928C811.702 21.4295 830.962 118.667 756.571 160.932C706.367 189.455 665.774 172.167 611.039 190.555C544.014 213.071 522.125 262.435 452.445 274.434C367.261 289.104 278.114 245.016 221.076 254.062C201.472 257.171 191.121 268.541 171.461 271.274C119.136 278.55 71.6156 225.89 23.1755 239.511Z" fill="#B6CCE0"/>
<path d="M959.806 157.348H953V380.944H959.806V157.348Z" fill="#DE9E43"/>
<path d="M974.494 136H968.046V393.303H974.494V136Z" fill="#DE9E43"/>
<path d="M989.182 156.225H982.733V410.157H989.182V156.225Z" fill="#DE9E43"/>
<path d="M1004.23 211.843H997.421V422.517H1004.23V211.843Z" fill="#DE9E43"/>
<path d="M1018.92 226.449H1012.47V436H1018.92V226.449Z" fill="#DE9E43"/>
<path d="M1033.96 173.64H1027.15V425.888H1033.96V173.64Z" fill="#DE9E43"/>
<path d="M1048.65 173.64H1042.2V406.786H1048.65V173.64Z" fill="#DE9E43"/>
<path d="M959.806 182.629H953V354.539H959.806V182.629Z" fill="#DE9E43"/>
<path d="M974.494 166.899H968.046V364.09H974.494V166.899Z" fill="#DE9E43"/>
<path d="M989.182 182.067H982.733V377.011H989.182V182.067Z" fill="#DE9E43"/>
<path d="M1004.23 224.764H997.421V386H1004.23V224.764Z" fill="#DE9E43"/>
<path d="M1018.92 236H1012.47V396.674H1018.92V236Z" fill="#DE9E43"/>
<path d="M1033.96 195.551H1027.15V388.809H1033.96V195.551Z" fill="#DE9E43"/>
<path d="M1048.65 195.551H1042.2V374.202H1048.65V195.551Z" fill="#DE9E43"/>
<path d="M959.806 219.146H953V327.011H959.806V219.146Z" fill="#DE9E43"/>
<path d="M974.494 209.034H968.046V332.629H974.494V209.034Z" fill="#DE9E43"/>
<path d="M989.182 218.584H982.733V341.056H989.182V218.584Z" fill="#DE9E43"/>
<path d="M1004.23 245.551H997.421V346.674H1004.23V245.551Z" fill="#DE9E43"/>
<path d="M1018.92 252.292H1012.47V353.416H1018.92V252.292Z" fill="#DE9E43"/>
<path d="M1033.96 227.011H1027.15V348.36H1033.96V227.011Z" fill="#DE9E43"/>
<path d="M1048.65 227.573H1042.2V339.371H1048.65V227.573Z" fill="#DE9E43"/>
<path d="M155.806 553.034H149V681.393H155.806V553.034Z" fill="#DE9E43"/>
<path d="M170.494 541H164.046V688.079H170.494V541Z" fill="#DE9E43"/>
<path d="M185.182 552.365H178.733V698.107H185.182V552.365Z" fill="#DE9E43"/>
<path d="M200.227 584.455H193.421V704.792H200.227V584.455Z" fill="#DE9E43"/>
<path d="M214.915 592.477H208.467V712.814H214.915V592.477Z" fill="#DE9E43"/>
<path d="M229.961 562.393H223.154V706.798H229.961V562.393Z" fill="#DE9E43"/>
<path d="M244.648 563.062H238.2V696.101H244.648V563.062Z" fill="#DE9E43"/>
<path d="M8.35334 571.539C-44.3701 589.376 -14.5566 745.455 -14.5566 745.455H1312.91C1312.91 745.455 1512.41 150.099 1312.91 174.721C1246.1 182.967 1206.48 192.192 1143.14 225.109C1087.46 254.045 1078.16 309.858 1026.09 335.188C917.557 387.978 856.041 482.592 790.131 482.592C731.91 482.592 522.482 460.332 464.735 467.834C343.49 483.586 281.306 645.061 208.784 662.125C96.7369 688.489 83.8343 546.003 8.35334 571.539Z" fill="#DEE6ED"/>
</g>
<defs>
<clipPath id="clip0_181_2">
<rect width="1200" height="729" fill="white"/>
</clipPath>
</defs>
</svg>
