<svg width="192" height="96" viewBox="0 0 192 96" fill="none" xmlns="http://www.w3.org/2000/svg">
<path d="M13.6128 88.842V95.6484L156.19 95.6484V88.842L13.6128 88.842Z" fill="#DE9E43"/>
<path d="M0 74.1543L0 80.6025L164.071 80.6025V74.1543L0 74.1543Z" fill="#DE9E43"/>
<path d="M12.8965 59.4671V65.9153L174.818 65.9153V59.4671L12.8965 59.4671Z" fill="#DE9E43"/>
<path d="M48.3618 44.4211V51.2275L182.7 51.2275V44.4211L48.3618 44.4211Z" fill="#DE9E43"/>
<path d="M57.6758 29.7334V36.1816L191.297 36.1816V29.7334L57.6758 29.7334Z" fill="#DE9E43"/>
<path d="M24.002 14.6874V21.4939L184.849 21.4939V14.6874L24.002 14.6874Z" fill="#DE9E43"/>
<path d="M24.002 2.47955e-05V6.44824L172.669 6.44824V2.47955e-05L24.002 2.47955e-05Z" fill="#DE9E43"/>
<path d="M29.7334 88.842V95.6484H139.353V88.842H29.7334Z" fill="#B6CCE0"/>
<path d="M19.7031 74.1543V80.6025L145.443 80.6025V74.1543L19.7031 74.1543Z" fill="#B6CCE0"/>
<path d="M29.375 59.4671V65.9153L153.682 65.9153V59.4671L29.375 59.4671Z" fill="#B6CCE0"/>
<path d="M56.6011 44.4211V51.2275L159.414 51.2275V44.4211L56.6011 44.4211Z" fill="#B6CCE0"/>
<path d="M63.7656 29.7334V36.1816L166.221 36.1816V29.7334L63.7656 29.7334Z" fill="#B6CCE0"/>
<path d="M37.9727 14.6874V21.4939L161.205 21.4939V14.6874L37.9727 14.6874Z" fill="#B6CCE0"/>
<path d="M37.9727 2.47955e-05V6.44824L151.891 6.44824V2.47955e-05L37.9727 2.47955e-05Z" fill="#B6CCE0"/>
<path d="M53.0186 88.842V95.6484H121.8V88.842H53.0186Z" fill="#DEE6ED"/>
<path d="M46.5703 74.1543V80.6025H125.382V74.1543H46.5703Z" fill="#DEE6ED"/>
<path d="M52.6606 59.4671V65.9153H130.756V59.4671L52.6606 59.4671Z" fill="#DEE6ED"/>
<path d="M69.8555 44.4211V51.2275L134.338 51.2275V44.4211H69.8555Z" fill="#DEE6ED"/>
<path d="M74.1543 29.7334V36.1816L138.636 36.1816V29.7334L74.1543 29.7334Z" fill="#DEE6ED"/>
<path d="M58.0342 14.6874V21.4939L135.413 21.4939V14.6874L58.0342 14.6874Z" fill="#DEE6ED"/>
<path d="M58.3926 2.47955e-05V6.44824L129.681 6.44824V2.47955e-05L58.3926 2.47955e-05Z" fill="#DEE6ED"/>
</svg>
