<svg width="32" height="32" viewBox="0 0 32 32" fill="none" xmlns="http://www.w3.org/2000/svg">
<path d="M16 27C22.0751 27 27 22.0751 27 16C27 9.92487 22.0751 5 16 5C9.92487 5 5 9.92487 5 16C5 22.0751 9.92487 27 16 27Z" fill="#DEE6ED"/>
<path d="M16 21C18.7614 21 21 18.7614 21 16C21 13.2386 18.7614 11 16 11C13.2386 11 11 13.2386 11 16C11 18.7614 13.2386 21 16 21Z" fill="#DE9E43"/>
<path d="M16 28C22.6274 28 28 22.6274 28 16C28 9.37258 22.6274 4 16 4C9.37258 4 4 9.37258 4 16C4 22.6274 9.37258 28 16 28Z" stroke="#213C4D" stroke-width="2" stroke-miterlimit="10"/>
<path d="M4.6875 12H27.3125" stroke="#213C4D" stroke-width="2" stroke-linecap="round" stroke-linejoin="round"/>
<path d="M4.6875 20H27.3125" stroke="#213C4D" stroke-width="2" stroke-linecap="round" stroke-linejoin="round"/>
<path d="M16 27.675C18.7614 27.675 21 22.4479 21 16C21 9.55209 18.7614 4.32501 16 4.32501C13.2386 4.32501 11 9.55209 11 16C11 22.4479 13.2386 27.675 16 27.675Z" stroke="#213C4D" stroke-width="2" stroke-miterlimit="10"/>
</svg>
